<?xml version="1.0" encoding="UTF-8" standalone="no"?>
<svg
   viewBox="0 0 24 24"
   version="1.1"
   id="svg19"
   sodipodi:docname="SeamCalculator.svg"
   xml:space="preserve"
   inkscape:version="1.2 (dc2aedaf03, 2022-05-15)"
   xmlns:inkscape="http://www.inkscape.org/namespaces/inkscape"
   xmlns:sodipodi="http://sodipodi.sourceforge.net/DTD/sodipodi-0.dtd"
   xmlns="http://www.w3.org/2000/svg"
   xmlns:svg="http://www.w3.org/2000/svg"><defs
     id="defs23" /><sodipodi:namedview
     id="namedview21"
     pagecolor="#ffffff"
     bordercolor="#000000"
     borderopacity="0.25"
     inkscape:showpageshadow="2"
     inkscape:pageopacity="0.0"
     inkscape:pagecheckerboard="0"
     inkscape:deskcolor="#d1d1d1"
     showgrid="false"
     showguides="true"
     inkscape:zoom="33.583333"
     inkscape:cx="6.1637717"
     inkscape:cy="12.029777"
     inkscape:window-width="1920"
     inkscape:window-height="1009"
     inkscape:window-x="-8"
     inkscape:window-y="-8"
     inkscape:window-maximized="1"
     inkscape:current-layer="svg19" /><g
     id="g5029"
     transform="translate(0.101737,0.5)"><path
       d="m 16.196526,7 a 1.7999999,1.7999999 0 0 0 -1.8,1.8 v 5.4 a 1.7999999,1.7999999 0 0 0 1.8,1.8 h 1.8 a 1.7999999,1.7999999 0 0 0 1.8,-1.8 V 8.8 a 1.7999999,1.7999999 0 0 0 -1.8,-1.8 h -1.8 m 0,1.8 h 1.8 v 5.4 h -1.8 z"
       id="path91-6"
       style="fill:#1029ba;fill-opacity:1;stroke-width:0.9" /><path
       d="M 9.4,7 A 1.7999999,1.7999999 0 0 0 7.6,8.8000001 V 14.2 A 1.7999999,1.7999999 0 0 0 9.4,16 h 1.8 A 1.7999999,1.7999999 0 0 0 13,14.2 V 8.8000001 A 1.7999999,1.7999999 0 0 0 11.2,7 H 9.4 m 0,1.8000001 h 1.8 V 14.2 H 9.4 Z"
       id="path91-6-0"
       style="fill:#1029ba;fill-opacity:1;stroke-width:0.9" /><circle
       style="fill:#f6df44;fill-opacity:1;stroke:none;stroke-width:0.0302362"
       id="path4954"
       cx="5.101737"
       cy="14.898263"
       r="1.101737" /></g></svg>
